<?xml version="1.0" standalone="no"?>
<!DOCTYPE svg PUBLIC "-//W3C//DTD SVG 20010904//EN"
 "http://www.w3.org/TR/2001/REC-SVG-20010904/DTD/svg10.dtd">
<svg version="1.0" xmlns="http://www.w3.org/2000/svg"
 width="2023.000000pt" height="1778.000000pt" viewBox="0 0 2023.000000 1778.000000"
 preserveAspectRatio="xMidYMid meet">

<g transform="translate(0.000000,1778.000000) scale(0.100000,-0.100000)"
fill="#000000" stroke="none">
<path d="M5108 17638 c-29 -45 -4997 -8653 -5002 -8668 -4 -9 1026 -1803 2503
-4360 l2509 -4345 5022 0 5022 0 2509 4345 c1380 2390 2509 4347 2509 4350 0
3 -1129 1961 -2508 4350 l-2509 4345 -5020 3 -5021 2 -14 -22z m11520 -4932
l2162 -3745 -2163 -3745 -2162 -3746 -4325 0 -4325 0 -2162 3746 -2163 3745
2162 3745 2162 3744 4326 0 4326 0 2162 -3744z"/>
<path d="M6166 15798 c-8 -13 -899 -1556 -1981 -3430 l-1966 -3407 1979 -3428
1979 -3428 3963 0 3963 0 1979 3428 1979 3428 -1979 3427 -1978 3427 -3962 3
-3962 2 -14 -22z m8870 -4010 c896 -1553 1628 -2827 1626 -2833 -2 -5 -736
-1278 -1630 -2828 l-1627 -2817 -3265 0 -3265 0 -1627 2818 c-894 1549 -1628
2822 -1630 2827 -2 6 730 1280 1626 2833 l1630 2822 3266 0 3266 0 1630 -2822z"/>
<path d="M5905 11408 c-776 -1343 -1409 -2447 -1407 -2452 2 -6 636 -1108
1410 -2448 l1407 -2438 2825 0 2825 0 1407 2438 c774 1340 1408 2442 1410
2448 2 5 -631 1109 -1407 2452 l-1409 2442 -2826 0 -2826 0 -1409 -2442z
m7424 -599 c643 -1113 1061 -1847 1058 -1857 -2 -9 -479 -838 -1059 -1842
l-1054 -1825 -2134 0 -2134 0 -1054 1825 c-580 1004 -1057 1833 -1059 1842 -3
10 415 744 1058 1857 l1062 1841 2127 0 2127 0 1062 -1841z"/>
</g>
</svg>
